<svg xmlns="http://www.w3.org/2000/svg" width="559" height="583" style="shape-rendering:geometricPrecision;text-rendering:geometricPrecision;image-rendering:optimizeQuality;fill-rule:evenodd;clip-rule:evenodd"><path style="opacity:.976" fill="#2f2e41" d="M361.5-.5h15c18.539 4.705 30.373 16.372 35.5 35a484.008 484.008 0 0 1 0 44c-.5 1.167-1.333 2-2.5 2.5a400.698 400.698 0 0 0-36 4.5v-4a4.932 4.932 0 0 0-3 .5c-2.731 5.622-7.064 7.289-13 5-1.537-1.11-2.203-2.61-2-4.5-8.673.166-17.34 0-26-.5a6.977 6.977 0 0 1-3.5-2.5 179.121 179.121 0 0 1-1.5-32h-10c.249-15.412 7.249-26.579 21-33.5 7.431-7.212 16.098-12.045 26-14.5z"/><path style="opacity:1" fill="#9c6069" d="M361.5 40.5c3.155 4.443 4.322 9.443 3.5 15-1.791 8.725-5.125 16.725-10 24-16.91-4.476-25.743-15.476-26.5-33h33v-6z"/><path style="opacity:.72" fill="#17affc" d="M-.5 114.5v-18c7.596-23.63 22.929-30.797 46-21.5a20.24 20.24 0 0 1 7.5 7.5 160.624 160.624 0 0 1 11-13 10.76 10.76 0 0 1 2.5 3 319.276 319.276 0 0 1-11 13.5c7.148 14.648 6.314 28.815-2.5 42.5-14.471 15.867-29.471 16.867-45 3-3.898-5.231-6.731-10.897-8.5-17zm25-40c11.205-1.387 19.538 2.446 25 11.5A282.014 282.014 0 0 1 31 107.5l-7-14c-1.011-.837-2.178-1.17-3.5-1a92.595 92.595 0 0 0 10 22c7.362-8.359 14.696-16.692 22-25 7.672 16.431 4.672 30.598-9 42.5-16.063 8.023-28.563 4.19-37.5-11.5-6.259-16.045-3.092-29.878 9.5-41.5 2.938-1.8 5.938-3.3 9-4.5z"/><path style="opacity:.976" fill="#04affe" d="M314.5 111.5a66.755 66.755 0 0 1-1.5 14c-.122 1.937-.955 3.27-2.5 4a320.503 320.503 0 0 1-33-6.5c-5.885-8.808-13.551-10.808-23-6-7.004 6.374-7.838 13.541-2.5 21.5 6.592 5.898 13.759 6.565 21.5 2a1066.838 1066.838 0 0 1 35 13c.295 2.235-.039 4.235-1 6a195.58 195.58 0 0 0-24.5 0 11.333 11.333 0 0 0-3.5-1.5 8756.597 8756.597 0 0 1-99-7.5c-3.03.873-6.03 1.206-9 1a225.591 225.591 0 0 0-30.5-4 3.943 3.943 0 0 0-2 1c-10.899-4.364-17.399-12.031-19.5-23a7.248 7.248 0 0 0-2-2.5c-.202-7.097 1.131-14.097 4-21 3.105-7.509 9.105-11.676 18-12.5a62628.662 62628.662 0 0 0 175 22z"/><path style="opacity:.996" fill="#cbcbcb" d="M400.5 122.5a126.4 126.4 0 0 0-8.5 10c-1.588 11.375-2.088 22.708-1.5 34l-2 27c.194 3.77.86 7.437 2 11a368.749 368.749 0 0 0 10 44 577.378 577.378 0 0 0 6 25.5c-.228.399-.562.565-1 .5a320.435 320.435 0 0 0-33 2.5 420.29 420.29 0 0 1-41 0c-12.992-.424-24.992-3.924-36-10.5-1.872-1.545-2.872-3.545-3-6a3586.489 3586.489 0 0 1 10-63c-.457-.798-1.124-1.131-2-1-.978-.311-1.645-.978-2-2a134.123 134.123 0 0 1 4-8.5l-1-1a80.214 80.214 0 0 1 3-4 3.943 3.943 0 0 0-1-2c2.34-6.538 3.673-13.038 4-19.5.961-1.765 1.295-3.765 1-6a2710.111 2710.111 0 0 1 39 13.5c2.646.497 5.313.664 8 .5a326.119 326.119 0 0 0-10-30.5 3077.364 3077.364 0 0 1-35-7.5c1.545-.73 2.378-2.063 2.5-4a66.755 66.755 0 0 0 1.5-14c2.108-7.942 7.108-13.108 15-15.5a2159.26 2159.26 0 0 1 59 0c12.54 4.916 16.54 13.749 12 26.5z"/><path style="opacity:1" fill="#9e616b" d="M310.5 129.5a3077.364 3077.364 0 0 0 35 7.5 326.119 326.119 0 0 1 10 30.5 32.462 32.462 0 0 1-8-.5 2710.111 2710.111 0 0 0-39-13.5 1066.838 1066.838 0 0 0-35-13c-7.741 4.565-14.908 3.898-21.5-2-5.338-7.959-4.504-15.126 2.5-21.5 9.449-4.808 17.115-2.808 23 6a320.503 320.503 0 0 0 33 6.5z"/><path style="opacity:.966" fill="#0ab0fe" d="M400.5 122.5a503.02 503.02 0 0 1 22 3.5c5.563 3.614 8.73 8.781 9.5 15.5 1.45 8.176.117 15.843-4 23-3.155 3.985-6.989 5.152-11.5 3.5-3.725-.76-7.392-.593-11 .5-4.801-1.819-9.801-2.486-15-2-.588-11.292-.088-22.625 1.5-34a126.4 126.4 0 0 1 8.5-10z"/><path style="opacity:.981" fill="#e3e4e4" d="M28.5 195.5c18.862.696 28.529 10.529 29 29.5-.487 19.979-10.487 31.813-30 35.5-12.474-1.3-20.64-7.967-24.5-20-3.76-16.374 1.073-29.874 14.5-40.5a78.172 78.172 0 0 1 11-4.5z"/><path style="opacity:.988" fill="#e3e3e3" d="M299.5 202.5a2280.263 2280.263 0 0 1-20 50 4564.653 4564.653 0 0 1-144 3.5c-12.008-5.549-17.675-15.049-17-28.5-.659-14.345 5.674-23.845 19-28.5 53.998.865 107.998 2.032 162 3.5z"/><path style="opacity:.985" fill="#9c616a" d="M300.5 196.5c.876-.131 1.543.202 2 1a3586.489 3586.489 0 0 0-10 63c.128 2.455 1.128 4.455 3 6a195.997 195.997 0 0 1-7 23c-.667 0-1 .333-1 1a54.968 54.968 0 0 1-12 1c-1.109-.79-2.442-1.29-4-1.5-2.16-2.863-4.16-5.196-6-7 .785-2.042.452-4.042-1-6 .329-2.971 1.662-5.804 4-8.5 3.472-2.202 6.138-5.035 8-8.5-1.134-1.016-.801-1.683 1-2l-1-1a11.105 11.105 0 0 0 3-4.5 2280.263 2280.263 0 0 0 20-50 19.22 19.22 0 0 0 1-6z"/><path style="opacity:.976" fill="#e3e3e4" d="M390.5 204.5c11.007.278 22.007.778 33 1.5 4.991 3.469 7.824 8.303 8.5 14.5 2.639 23.854-7.861 33.187-31.5 28a368.749 368.749 0 0 1-10-44z"/><path style="opacity:.986" fill="#2f2e41" d="M295.5 266.5c11.008 6.576 23.008 10.076 36 10.5a420.29 420.29 0 0 0 41 0 320.435 320.435 0 0 1 33-2.5 51.569 51.569 0 0 0 1 7 266.462 266.462 0 0 1 0 44 213.389 213.389 0 0 1-13.5 52l-15 154c.07 3.492-.763 6.492-2.5 9a112.97 112.97 0 0 0-15 .5c-1.558.21-2.891.71-4 1.5h-9a32898.778 32898.778 0 0 0-9.5-189 1524.82 1524.82 0 0 0-38.5 63 6424.993 6424.993 0 0 1 7 125h-6a45.636 45.636 0 0 0-19 0l-8-1c-4.468-46.346-9.135-92.68-14-139a1274.36 1274.36 0 0 1 15-59 745.505 745.505 0 0 0 14-52v-1a195.997 195.997 0 0 0 7-23z"/><path style="opacity:.973" fill="#e3e3e3" d="M406.5 325.5a266.462 266.462 0 0 0 0-44c17.424-5.07 26.09 1.43 26 19.5.228 17.605-8.438 25.772-26 24.5z"/><path style="opacity:.989" fill="#e3e3e3" d="M287.5 290.5h1a745.505 745.505 0 0 1-14 52 8339.96 8339.96 0 0 0-135.5 17c-14.036-3.363-20.869-12.363-20.5-27-.45-13.602 5.216-23.768 17-30.5a4069.75 4069.75 0 0 1 140-10.5 54.968 54.968 0 0 0 12-1z"/><path style="opacity:.978" fill="#e3e4e4" d="M29.5 308.5c18.342 1.177 27.675 11.01 28 29.5-.52 20.009-10.52 31.843-30 35.5-11.33-.829-19.163-6.496-23.5-17-5.424-17.404-.924-31.904 13.5-43.5 3.932-2.028 7.932-3.528 12-4.5z"/><path style="opacity:1" fill="#fdfdfd" d="M467.5 435.5a684.18 684.18 0 0 1 5.5 25 4.933 4.933 0 0 0 2.5 1 91.952 91.952 0 0 1 13-3.5 111.938 111.938 0 0 1-15 7 294.174 294.174 0 0 1 4.5 28.5c9.748.98 18.748-1.353 27-7 1.03.336 1.53 1.003 1.5 2-8.687 4.895-18.02 7.562-28 8a305.16 305.16 0 0 1 1 26 44.72 44.72 0 0 0 17-3.5 106.563 106.563 0 0 0 20-13.5c1.333.667 1.333 1.333 0 2-10.202 9.851-22.368 15.851-36.5 18 .343 18.958-3.49 36.958-11.5 54h-2c8.393-17.299 12.06-35.633 11-55-26.66-.151-44.994-12.484-55-37v-1c.617-.111 1.117-.444 1.5-1 9.571 24.421 27.405 36.755 53.5 37 .173-8.695-.16-17.362-1-26-19.439.281-34.772-7.386-46-23 4.405 2.896 8.405 6.396 12 10.5 10.115 7.316 21.448 11.15 34 11.5a495.727 495.727 0 0 0-4.5-31 145.24 145.24 0 0 0-16.5-1.5 39.013 39.013 0 0 1-13-4.5l1-1c8.651 3.522 17.651 4.855 27 4-.921-10.001-2.921-19.667-6-29-1.238-.31-1.238-.81 0-1.5.667-.667 1.333-.667 2 0 .88 1.356 1.214 2.856 1 4.5z"/><path style="opacity:.995" fill="#f1f2f2" d="M464.5 432.5c3.079 9.333 5.079 18.999 6 29-9.349.855-18.349-.478-27-4l-1 1a39.013 39.013 0 0 0 13 4.5 145.24 145.24 0 0 1 16.5 1.5 495.727 495.727 0 0 1 4.5 31c-12.552-.35-23.885-4.184-34-11.5-3.595-4.104-7.595-7.604-12-10.5 9.774-14.791 21.108-28.458 34-41z"/><path style="opacity:.989" fill="#f1f1f1" d="M467.5 435.5a230.896 230.896 0 0 1 14.5 16c8.148 8.772 15.482 18.772 22 30 .908 1.939 2.408 2.939 4.5 3 .271 1.88-.396 3.213-2 4 .03-.997-.47-1.664-1.5-2-8.252 5.647-17.252 7.98-27 7a294.174 294.174 0 0 0-4.5-28.5 111.938 111.938 0 0 0 15-7 91.952 91.952 0 0 0-13 3.5 4.933 4.933 0 0 1-2.5-1 684.18 684.18 0 0 0-5.5-25z"/><path style="opacity:.997" fill="#f2f2f2" d="M430.5 473.5c11.228 15.614 26.561 23.281 46 23a222.644 222.644 0 0 1 1 26c-26.095-.245-43.929-12.579-53.5-37-.383.556-.883.889-1.5 1a128.376 128.376 0 0 1 8-13z"/><path style="opacity:.994" fill="#f1f1f2" d="M422.5 487.5c10.006 24.516 28.34 36.849 55 37 1.06 19.367-2.607 37.701-11 55h-24c-13.165-4.663-22.665-13.33-28.5-26-7.883-23.65-5.05-45.65 8.5-66z"/><path style="opacity:.984" fill="#f1f1f1" d="M506.5 488.5a20589.46 20589.46 0 0 1-14.5 27l20-18a149.984 149.984 0 0 1 4.5 8 106.563 106.563 0 0 1-20 13.5 44.72 44.72 0 0 1-17 3.5 305.16 305.16 0 0 0-1-26c9.98-.438 19.313-3.105 28-8z"/><path style="opacity:.99" fill="#f1f1f1" d="M516.5 507.5c5.767 20.125 3.267 39.125-7.5 57-6.343 6.909-13.843 11.909-22.5 15h-18c8.01-17.042 11.843-35.042 11.5-54 14.132-2.149 26.298-8.149 36.5-18z"/><path style="opacity:.971" fill="#9c6069" d="M375.5 540.5v19c-5.858.322-11.525-.011-17-1a87.548 87.548 0 0 1-2-16c1.109-.79 2.442-1.29 4-1.5a112.97 112.97 0 0 1 15-.5z"/><path style="opacity:.968" fill="#995f69" d="M300.5 541.5v18c-5.858.322-11.525-.011-17-1-1.72-1.183-2.053-3.017-1-5.5-.175-1.658-.842-2.991-2-4 .819-2.343 1.153-4.843 1-7.5a45.636 45.636 0 0 1 19 0z"/><path style="opacity:.973" fill="#2f2e41" d="M283.5 558.5c5.475.989 11.142 1.322 17 1h4v20h-52c.868-11.367 6.868-18.2 18-20.5a84.902 84.902 0 0 1 13-.5z"/><path style="opacity:.979" fill="#2f2e41" d="M358.5 558.5c5.475.989 11.142 1.322 17 1h4v20h-52c.555-9.951 5.555-16.451 15-19.5a147.83 147.83 0 0 0 16-1.5z"/><path style="opacity:.807" fill="#c8c8c8" d="M252.5 579.5h306v3h-461v-3h155z"/></svg>