<svg xmlns="http://www.w3.org/2000/svg" width="930" height="652" style="shape-rendering:geometricPrecision;text-rendering:geometricPrecision;image-rendering:optimizeQuality;fill-rule:evenodd;clip-rule:evenodd"><path style="opacity:.993" fill="#03affe" d="M326.5 93.5a62.733 62.733 0 0 0-6 9c-9.491 10.647-21.157 17.814-35 21.5a67.285 67.285 0 0 1-13 1.5v-46c9.203-.707 14.203-5.707 15-15-1.051-9.883-6.551-15.217-16.5-16-13.886 3.44-17.886 11.773-12 25 2.691 4.262 6.524 6.262 11.5 6v46h-3c-9.062-17.871-23.728-25.87-44-24-2.971-3.254-5.471-6.92-7.5-11-3.122-7.185-5.289-14.518-6.5-22-1.029-19.695 5.971-36.695 21-51 26.921-19.774 53.921-19.94 81-.5 22.366 22.046 27.366 47.546 15 76.5z"/><path style="opacity:.999" fill="#f1f1f1" d="M-.5 3.5a560.947 560.947 0 0 1 36 11c-2.643 19.856 6.023 29.356 26 28.5 8.419-2.256 14.085-7.423 17-15.5a14886.625 14886.625 0 0 1 131 41c1.211 7.482 3.378 14.815 6.5 22 2.029 4.08 4.529 7.746 7.5 11l1 2c2.4 3.403 5.4 6.07 9 8a1593.308 1593.308 0 0 1 36.5 32c.667 43 .667 86 0 129-5.713-24.709-21.213-35.875-46.5-33.5l46.5 40.5c.667 33.667.667 67.333 0 101-2.791-16.754-10.624-30.587-23.5-41.5l-7-3.5c-.323-13.827-7.323-19.993-21-18.5-10.379 5.139-13.212 12.972-8.5 23.5 5.348 7.062 12.181 8.895 20.5 5.5 3.522-2.189 6.355-5.022 8.5-8.5 11.438 5.831 19.438 14.831 24 27 6.904 18.72 9.404 38.054 7.5 58h-133c.738-53.821 1.738-107.488 3-161 26.906-1.421 45.74-14.421 56.5-39 9.641-30.743 1.474-55.577-24.5-74.5-31.977-16.204-59.477-10.704-82.5 16.5-18.11 30.894-14.277 58.728 11.5 83.5 10.092 7.543 21.426 12.043 34 13.5.617.111 1.117.444 1.5 1 .75 36.676.417 73.343-1 110-2.852-15.875-10.019-29.375-21.5-40.5a46.928 46.928 0 0 0-8-4.5c-.512-14.349-7.845-20.515-22-18.5-10.223 5.295-12.723 13.128-7.5 23.5 5.916 7.386 13.083 8.886 21.5 4.5 2.933-2.264 5.1-5.098 6.5-8.5 13.21 7.42 21.877 18.42 26 33a387.974 387.974 0 0 0 4 17c.5 14.663.667 29.33.5 44H-.5V3.5z"/><path style="opacity:1" fill="#47455d" d="M49.5-.5h14c11.788 5.57 16.788 14.904 15 28-2.915 8.077-8.581 13.244-17 15.5-19.977.856-28.643-8.644-26-28.5 2.612-6.945 7.279-11.945 14-15zm26 27a1176.915 1176.915 0 0 0-37-11c1.628-6.474 5.462-10.14 11.5-11l1-2c3.61.305 7.277.305 11 0 10.208 4.725 14.708 12.725 13.5 24z"/><path style="opacity:.978" fill="#eeefef" d="M38.5 15.5a1176.915 1176.915 0 0 1 37 11c-3.961 11.99-12.294 16.824-25 14.5-11.846-5.177-15.846-13.677-12-25.5z"/><path style="opacity:1" fill="#424059" d="M272.5 125.5c-.167 36.668 0 73.335.5 110 2.655-16.814 10.155-30.98 22.5-42.5a133.668 133.668 0 0 1 9.5-5.5c1.359-15.929 9.526-21.096 24.5-15.5 9.333 8.667 9.333 17.333 0 26-4.43 2.27-9.097 2.937-14 2-4.481-2.32-8.147-5.487-11-9.5-14.611 8.134-23.778 20.468-27.5 37l-3 14a3435.765 3435.765 0 0 0-.5 181h-3c1.904-19.946-.596-39.28-7.5-58-4.562-12.169-12.562-21.169-24-27-2.145 3.478-4.978 6.311-8.5 8.5-8.319 3.395-15.152 1.562-20.5-5.5-4.712-10.528-1.879-18.361 8.5-23.5 13.677-1.493 20.677 4.673 21 18.5l7 3.5c12.876 10.913 20.709 24.746 23.5 41.5.667-33.667.667-67.333 0-101L223.5 239c25.287-2.375 40.787 8.791 46.5 33.5.667-43 .667-86 0-129a1593.308 1593.308 0 0 0-36.5-32c-2.4-3.403-5.4-6.07-9-8l-1-2c20.272-1.87 34.938 6.129 44 24 2.249 11.734 3.249 11.734 3 0v-46c-4.976.262-8.809-1.738-11.5-6-5.886-13.227-1.886-21.56 12-25 9.949.783 15.449 6.117 16.5 16-.797 9.293-5.797 14.293-15 15v46z"/><path style="opacity:.992" fill="#2f2e41" d="M825.5 161.5a12.93 12.93 0 0 1-5-.5c2.135-.876 3.469-2.376 4-4.5 2-1.476 3.667-3.309 5-5.5-.228-.399-.562-.565-1-.5 0-.667.333-1 1-1s1-.333 1-1c2.717-5.706 3.551-11.706 2.5-18-3.331-6.755-8.831-10.089-16.5-10-8.808.318-15.308 4.318-19.5 12l-1-5c-1.924 6.357-1.757 12.69.5 19-5.748-4.529-9.082-10.196-10-17a37.138 37.138 0 0 0-2-4.5c3.232-9.3 5.732-18.8 7.5-28.5 2.92-6.42 7.42-11.42 13.5-15-.589-9.644 3.745-16.478 13-20.5 14.046-2.453 22.046 3.38 24 17.5a24.195 24.195 0 0 1-2 8.5c7.231 9.562 8.897 20.062 5 31.5 7.075 14.866 4.408 27.699-8 38.5-3.703 2.354-7.703 3.854-12 4.5z"/><path style="opacity:.008" fill="#455274" d="M326.5 93.5c1.333.667 1.333.667 0 0z"/><path style="opacity:.998" fill="#f1f1f1" d="m320.5 102.5 60 19c-1.156 19.343 7.844 28.51 27 27.5 7.403-2.57 12.736-7.403 16-14.5a5341.187 5341.187 0 0 0 136 42v149c-13.69 1.023-21.023 8.356-22 22 1.006 13.672 8.339 21.006 22 22v41a27.563 27.563 0 0 1-3.5 6 18.453 18.453 0 0 0-.5 6h-159v-38c32.611-2.773 52.778-20.107 60.5-52 2.302-33.574-12.198-56.407-43.5-68.5-29.105-6.523-52.272 2.31-69.5 26.5-8.559 15.376-10.892 31.709-7 49 7.885 24.386 24.385 39.053 49.5 44 2.894 1.382 5.394 3.382 7.5 6 .5 10.995.667 21.995.5 33h-121a3435.765 3435.765 0 0 1 .5-181l3-14c3.722-16.532 12.889-28.866 27.5-37 2.853 4.013 6.519 7.18 11 9.5 4.903.937 9.57.27 14-2 9.333-8.667 9.333-17.333 0-26-14.974-5.596-23.141-.429-24.5 15.5a133.668 133.668 0 0 0-9.5 5.5c-12.345 11.52-19.845 25.686-22.5 42.5-.5-36.665-.667-73.332-.5-110a67.285 67.285 0 0 0 13-1.5c13.843-3.686 25.509-10.853 35-21.5z"/><path style="opacity:1" fill="#419fd5" d="M224.5 103.5c3.6 1.93 6.6 4.597 9 8-3.6-1.93-6.6-4.597-9-8z"/><path style="opacity:.853" fill="#424159" d="M423.5 134.5c-3.264 7.097-8.597 11.93-16 14.5-19.156 1.01-28.156-8.157-27-27.5 7.098-16.093 18.765-20.26 35-12.5 8.206 6.783 10.872 15.283 8 25.5zm-3-1a1534.156 1534.156 0 0 1-37-11c2.679-7.526 7.512-12.192 14.5-14 3.384.141 6.717.141 10 0 2.215 1.863 4.715 3.363 7.5 4.5a67.175 67.175 0 0 0 5 7c.782 4.119.782 8.619 0 13.5z"/><path style="opacity:.999" fill="#f8bcbc" d="M830.5 148.5c-.667 0-1 .333-1 1-.667 0-1 .333-1 1l-3 2c-7.709 3.886-15.376 3.886-23 0a25.658 25.658 0 0 1-6-6c-2.257-6.31-2.424-12.643-.5-19l1 5c4.192-7.682 10.692-11.682 19.5-12 7.669-.089 13.169 3.245 16.5 10 1.051 6.294.217 12.294-2.5 18z"/><path style="opacity:.975" fill="#eeeeef" d="M383.5 122.5a1534.156 1534.156 0 0 0 37 11c-1.363 7.199-5.697 11.699-13 13.5-17.76 1.076-25.76-7.091-24-24.5z"/><path style="opacity:1" fill="#ebebec" d="M267.5 125.5h3c.249 11.734-.751 11.734-3 0z"/><path style="opacity:1" fill="#07b0fe" d="M140.5 261.5v-46c11.679-1.97 16.512-8.97 14.5-21-8.163-12.055-17.497-13.055-28-3-4.983 12.365-1.15 20.365 11.5 24a840.27 840.27 0 0 1-.5 41c-4.704-25.382-19.871-37.215-45.5-35.5a14747.894 14747.894 0 0 1 43 40.5c-12.574-1.457-23.908-5.957-34-13.5-25.777-24.772-29.61-52.606-11.5-83.5 23.023-27.204 50.523-32.704 82.5-16.5 25.974 18.923 34.141 43.757 24.5 74.5-10.76 24.579-29.594 37.579-56.5 39z"/><path style="opacity:.991" fill="#e1abab" d="M802.5 152.5c7.624 3.886 15.291 3.886 23 0-.734 1.208-1.067 2.541-1 4-.531 2.124-1.865 3.624-4 4.5a12.93 12.93 0 0 0 5 .5c.526 1.73 1.526 3.064 3 4-2.149 2.246-4.816 3.746-8 4.5-6.55 1.981-13.217 2.648-20 2-1.729-1.789-2.396-3.956-2-6.5 4.251-3.316 5.585-7.65 4-13z"/><path style="opacity:.996" fill="#cfcce0" d="M844.5 255.5c-2.631 3.568-4.298 7.235-5 11a4.934 4.934 0 0 0-3 .5 55.337 55.337 0 0 1-6 8 427.448 427.448 0 0 1-25 12 132.91 132.91 0 0 0-10 8.5c-2.66-1.997-5.66-3.497-9-4.5-.837-1.011-1.17-2.178-1-3.5a128.938 128.938 0 0 1 17-25.5c-3.816-.401-7.483.266-11 2a91.73 91.73 0 0 1-10 5.5c-1.435-1.447-2.435-3.114-3-5 .065-.438-.101-.772-.5-1-1.094 3.192-2.927 5.858-5.5 8-.929 1.189-1.262 2.522-1 4-.472 3.315-2.305 5.649-5.5 7a20.64 20.64 0 0 1-2 6c-.708-.881-1.542-1.547-2.5-2h-1a5443.52 5443.52 0 0 1-2-53c2.13-7.506 4.13-14.839 6-22 4.365-3.896 7.031-8.729 8-14.5a47.499 47.499 0 0 1-1-5.5 105.17 105.17 0 0 0 8-15c5.115-5.783 11.448-9.45 19-11-.396 2.544.271 4.711 2 6.5 6.783.648 13.45-.019 20-2 3.184-.754 5.851-2.254 8-4.5.634-1.447 1.801-2.113 3.5-2 10.452 3.544 16.118 10.877 17 22 1.037 20.733.371 41.4-2 62a110.146 110.146 0 0 0-2.5 8zm-66 9c.284 2.377.284 4.544 0 6.5 1.456.423 1.956 1.256 1.5 2.5-2.565 1.679-5.398 2.346-8.5 2-.262-1.478.071-2.811 1-4 2.573-2.142 4.406-4.808 5.5-8 .399.228.565.562.5 1z"/><path style="opacity:1" fill="#424059" d="M462.5 171.5c13.259-.117 18.426 6.216 15.5 19-5.121 7.212-11.621 8.712-19.5 4.5-7.628-9.45-6.294-17.283 4-23.5z"/><path style="opacity:.968" fill="#0faefc" d="M771.5 191.5a47.499 47.499 0 0 0 1 5.5c-.969 5.771-3.635 10.604-8 14.5-1.797 1.906-3.797 2.573-6 2-1-1.333-2-1.333-3 0-1.891-1.036-3.724-1.036-5.5 0a28.012 28.012 0 0 0-8.5-6.5 3.647 3.647 0 0 0 1-1.5c-5.058-13.539-.391-21.872 14-25 7.057 1.014 12.057 4.68 15 11z"/><path style="opacity:1" fill="#42415a" d="M140.5 261.5a16318.533 16318.533 0 0 0-3 161h-2c.167-14.67 0-29.337-.5-44a387.974 387.974 0 0 1-4-17c-4.123-14.58-12.79-25.58-26-33-1.4 3.402-3.567 6.236-6.5 8.5-8.417 4.386-15.584 2.886-21.5-4.5-5.223-10.372-2.723-18.205 7.5-23.5 14.155-2.015 21.488 4.151 22 18.5a46.928 46.928 0 0 1 8 4.5c11.481 11.125 18.648 24.625 21.5 40.5a1861.74 1861.74 0 0 0 1-110c-.383-.556-.883-.889-1.5-1a14747.894 14747.894 0 0 0-43-40.5c25.629-1.715 40.796 10.118 45.5 35.5.5-13.663.667-27.329.5-41-12.65-3.635-16.483-11.635-11.5-24 10.503-10.055 19.837-9.055 28 3 2.012 12.03-2.821 19.03-14.5 21v46z"/><path style="opacity:.854" fill="#736af7" d="M758.5 213.5v20a5443.52 5443.52 0 0 0 2 53v18c.215 1.679-.452 2.679-2 3 .325-7.519-.008-14.852-1-22v-21c.543-.06.876-.393 1-1a1229.76 1229.76 0 0 0-2-19c-.602-3.235-.602-6.569 0-10 .284-1.915-.049-3.581-1-5-.874-5.438-.874-10.771 0-16 1-1.333 2-1.333 3 0z"/><path style="opacity:.948" fill="#1daefb" d="M754.5 247.5a20.093 20.093 0 0 0 1.5 6c.498-2.982.665-5.982.5-9a1229.76 1229.76 0 0 1 2 19c-.124.607-.457.94-1 1-1.553-1.885-3.553-2.885-6-3-14.074-13.274-28.741-25.44-44-36.5 21.605-4.864 37.272 2.636 47 22.5z"/><path style="opacity:.067" fill="#4996d4" d="M755.5 229.5c.951 1.419 1.284 3.085 1 5-.789-.283-1.456-.783-2-1.5.119-1.145.452-2.312 1-3.5z"/><path style="opacity:.84" fill="#c8cde3" d="M756.5 244.5a40.914 40.914 0 0 1-.5 9 20.093 20.093 0 0 1-1.5-6l2-3z"/><path style="opacity:.008" fill="#455274" d="M844.5 255.5c1.333.667 1.333.667 0 0z"/><path style="opacity:.98" fill="#cccade" d="M751.5 261.5c2.447.115 4.447 1.115 6 3v21l-6-1a9.175 9.175 0 0 0-4.5 2 28.208 28.208 0 0 0-1.5-4c-2.028-4.674-2.028-9.507 0-14.5l-1-1c2.911-1.222 5.244-3.055 7-5.5z"/><path style="opacity:1" fill="#07affe" d="M396.5 384.5c-.167-15.337 0-30.67.5-46 13.366-3.744 17.366-12.077 12-25-6.598-6.543-14.098-7.709-22.5-3.5-7.844 8.283-7.844 16.616 0 25a19.704 19.704 0 0 0 8 3.5 420.766 420.766 0 0 1-1 41c-6.299-22.982-21.299-33.315-45-31a27522.313 27522.313 0 0 1 38 35c-25.115-4.947-41.615-19.614-49.5-44-3.892-17.291-1.559-33.624 7-49 17.228-24.19 40.395-33.023 69.5-26.5 31.302 12.093 45.802 34.926 43.5 68.5-7.722 31.893-27.889 49.227-60.5 52z"/><path style="opacity:.997" fill="#2f2e41" d="M785.5 287.5c-4.017 7.133-5.017 14.799-3 23 .086.996-.248 1.829-1 2.5a376.938 376.938 0 0 0-23 12 75.953 75.953 0 0 1-16.5 3.5c2.22 13.479 3.054 27.145 2.5 41h-4c-5.945.379-11.612-.621-17-3-11.146-2.769-21.813-6.602-32-11.5.243-.902.577-1.735 1-2.5a30346.39 30346.39 0 0 0 6-20 3.647 3.647 0 0 0-1-1.5c1.976-3.21 2.642-6.543 2-10a96.11 96.11 0 0 0 3.5-14.5c2.408-7.409 7.242-12.576 14.5-15.5 9.368-2.84 18.702-5.674 28-8.5a28.208 28.208 0 0 1 1.5 4 9.175 9.175 0 0 1 4.5-2c-.616 4.911-2.116 9.577-4.5 14-1.479 6.875.354 12.708 5.5 17.5 2.594 1.601 5.261 1.767 8 .5a18.353 18.353 0 0 1-2-9c1.548-.321 2.215-1.321 2-3 1.1 1.777 1.934 3.777 2.5 6 1.011.837 2.178 1.17 3.5 1 1.007-8.966-.66-17.299-5-25 .958.453 1.792 1.119 2.5 2a20.64 20.64 0 0 0 2-6c3.195-1.351 5.028-3.685 5.5-7 3.102.346 5.935-.321 8.5-2 .456-1.244-.044-2.077-1.5-2.5.284-1.956.284-4.123 0-6.5.565 1.886 1.565 3.553 3 5a91.73 91.73 0 0 0 10-5.5c3.517-1.734 7.184-2.401 11-2a128.938 128.938 0 0 0-17 25.5z"/><path style="opacity:1" fill="#2f2e41" d="M839.5 266.5a71.194 71.194 0 0 1 3 9c3.758 11.236 1.258 20.903-7.5 29-2.479 3.623-3.812 7.623-4 12-4.864 4.393-7.53 9.727-8 16 6.389 3.389 11.056 8.389 14 15 2.42 11.169 6.753 21.502 13 31 .64 2.043.14 3.71-1.5 5-5.487 1.837-10.487 4.503-15 8a98.788 98.788 0 0 1-20 11.5c-3.456 1.123-6.29.29-8.5-2.5a361.188 361.188 0 0 1-23-58c-.605-10.009 1.562-19.343 6.5-28a14.698 14.698 0 0 0 3.5-3 431.344 431.344 0 0 1 3.5-16 132.91 132.91 0 0 1 10-8.5 427.448 427.448 0 0 0 25-12 55.337 55.337 0 0 0 6-8 4.934 4.934 0 0 1 3-.5z"/><path style="opacity:1" fill="#f5babb" d="m751.5 284.5 6 1c.992 7.148 1.325 14.481 1 22-.1 3.167.567 6.167 2 9-2.739 1.267-5.406 1.101-8-.5-5.146-4.792-6.979-10.625-5.5-17.5 2.384-4.423 3.884-9.089 4.5-14z"/><path style="opacity:1" fill="#efb6b8" d="M760.5 286.5h1c4.34 7.701 6.007 16.034 5 25-1.322.17-2.489-.163-3.5-1-.566-2.223-1.4-4.223-2.5-6v-18z"/><path style="opacity:1" fill="#f1b7b8" d="M785.5 287.5c-.17 1.322.163 2.489 1 3.5 3.34 1.003 6.34 2.503 9 4.5a431.344 431.344 0 0 0-3.5 16 14.698 14.698 0 0 1-3.5 3c-2.818-.157-4.818-1.491-6-4-2.017-8.201-1.017-15.867 3-23z"/><path style="opacity:1" fill="#3f3f59" d="M396.5 384.5v38h-2c.167-11.005 0-22.005-.5-33-2.106-2.618-4.606-4.618-7.5-6a27522.313 27522.313 0 0 0-38-35c23.701-2.315 38.701 8.018 45 31a42.47 42.47 0 0 0 1.5 5c.828-15.506.661-30.839-.5-46a19.704 19.704 0 0 1-8-3.5c-7.844-8.384-7.844-16.717 0-25 8.402-4.209 15.902-3.043 22.5 3.5 5.366 12.923 1.366 21.256-12 25-.5 15.33-.667 30.663-.5 46z"/><path style="opacity:.999" fill="#3e3d56" d="M929.5 311.5v39c-3.967 33.902-15.634 64.902-35 93-35.205 46.36-79.705 73.026-133.5 80-2.993 2.168-6.16 2.501-9.5 1a14.845 14.845 0 0 0-6.5 2c-5.962-1.05-12.129-1.05-18.5 0-4.052-2.136-8.219-2.47-12.5-1-2.418-2.18-5.084-2.513-8-1-5.555-2.221-11.388-3.887-17.5-5-1.303 1.218-2.303.885-3-1l-2 1c-3.175-2.665-6.675-3.665-10.5-3a123.68 123.68 0 0 0-16-8l-1 1a1679.476 1679.476 0 0 1-29.5-16.5c-20.221-14.721-37.555-32.221-52-52.5a317.982 317.982 0 0 1-3-5c-2.328-1.224-4.661-1.224-7 0-1.226-1.778-2.893-2.778-5-3-1 71.292-1.333 143.959-1 218H-.5v-228h79c2.449 72.088 33.782 127.588 94 166.5 59.471 33.194 120.471 36.194 183 9 70.45-37.013 107.45-95.513 111-175.5h89a18.453 18.453 0 0 1 .5-6 27.563 27.563 0 0 0 3.5-6c5.604-2.656 11.271-2.656 17 0l116-58a11.123 11.123 0 0 0-1 2.5c10.187 4.898 20.854 8.731 32 11.5a532.997 532.997 0 0 1 1.5 26c2.106 1.791 4.606 2.458 7.5 2-2.393.71-4.893 1.377-7.5 2a80.424 80.424 0 0 0 .5 20 19.967 19.967 0 0 1-2.5 9c-1.004 3.493-.504 6.659 1.5 9.5 1.667.667 3.333.667 5 0a55.36 55.36 0 0 0 8.5-9.5 587.465 587.465 0 0 0 20.5-41c-5.021-3.564-10.688-5.564-17-6a29.23 29.23 0 0 0-1-9h4c.554-13.855-.28-27.521-2.5-41a75.953 75.953 0 0 0 16.5-3.5 376.938 376.938 0 0 1 23-12c.752-.671 1.086-1.504 1-2.5 1.182 2.509 3.182 3.843 6 4-4.938 8.657-7.105 17.991-6.5 28a361.188 361.188 0 0 0 23 58c2.21 2.79 5.044 3.623 8.5 2.5a98.788 98.788 0 0 0 20-11.5 63.707 63.707 0 0 0 6.5 7 363.959 363.959 0 0 0 14.5 22 8.43 8.43 0 0 0 .5 4c8.489 8.812 13.656 19.312 15.5 31.5 6.678 3.166 11.844 1.666 15.5-4.5a72.464 72.464 0 0 0 0-17c-2.001-11.347-4.001-22.68-6-34a11.532 11.532 0 0 0-3.5-4.5 112.97 112.97 0 0 0-15-.5v4a171.995 171.995 0 0 0-9.5-14c-.816-1.323-1.983-1.989-3.5-2 1.64-1.29 2.14-2.957 1.5-5-6.247-9.498-10.58-19.831-13-31-2.944-6.611-7.611-11.611-14-15 .47-6.273 3.136-11.607 8-16 .188-4.377 1.521-8.377 4-12 8.758-8.097 11.258-17.764 7.5-29a1521.387 1521.387 0 0 0 66-33c11.268 21.795 18.268 44.795 21 69z"/><path style="opacity:.874" fill="#43415a" d="M559.5 325.5c16.682 1.864 23.848 11.197 21.5 28-3.553 10.779-10.72 16.112-21.5 16-13.661-.994-20.994-8.328-22-22 .977-13.644 8.31-20.977 22-22zm0 3c11.975.642 18.309 6.975 19 19-.691 12.025-7.025 18.358-19 19v-38z"/><path style="opacity:.99" fill="#efefef" d="M559.5 328.5v38c-12.715-.045-19.381-6.712-20-20 1.543-12.231 8.21-18.231 20-18z"/><path style="opacity:1" fill="#2173a6" d="M394.5 338.5c1.161 15.161 1.328 30.494.5 46a42.47 42.47 0 0 1-1.5-5 420.766 420.766 0 0 0 1-41z"/><path style="opacity:1" fill="#f4b9ba" d="M723.5 366.5c5.388 2.379 11.055 3.379 17 3a29.23 29.23 0 0 1 1 9c-.404 6.75-3.404 12.084-9 16-2.894.458-5.394-.209-7.5-2a532.997 532.997 0 0 0-1.5-26z"/><path style="opacity:1" fill="#2f2e41" d="M741.5 378.5c6.312.436 11.979 2.436 17 6a587.465 587.465 0 0 1-20.5 41 55.36 55.36 0 0 1-8.5 9.5c-1.667.667-3.333.667-5 0-2.004-2.841-2.504-6.007-1.5-9.5a19.967 19.967 0 0 0 2.5-9 80.424 80.424 0 0 1-.5-20c2.607-.623 5.107-1.29 7.5-2 5.596-3.916 8.596-9.25 9-16z"/><path style="opacity:1" fill="#f6babb" d="M848.5 383.5c1.517.011 2.684.677 3.5 2a171.995 171.995 0 0 1 9.5 14c2.649 3.614 3.815 7.614 3.5 12a36.078 36.078 0 0 1-3.5 4.5c-2.739 1.026-5.072 2.526-7 4.5a363.959 363.959 0 0 1-14.5-22 63.707 63.707 0 0 1-6.5-7c4.513-3.497 9.513-6.163 15-8z"/><path style="opacity:1" fill="#2f2e41" d="M854.5 420.5c1.928-1.974 4.261-3.474 7-4.5a36.078 36.078 0 0 0 3.5-4.5c.315-4.386-.851-8.386-3.5-12v-4a112.97 112.97 0 0 1 15 .5 11.532 11.532 0 0 1 3.5 4.5c1.999 11.32 3.999 22.653 6 34a72.464 72.464 0 0 1 0 17c-3.656 6.166-8.822 7.666-15.5 4.5-1.844-12.188-7.011-22.688-15.5-31.5a8.43 8.43 0 0 1-.5-4z"/><path style="opacity:1" fill="#00affe" d="M78.5 422.5h388c-3.55 79.987-40.55 138.487-111 175.5-62.529 27.194-123.529 24.194-183-9-60.218-38.912-91.551-94.412-94-166.5z"/><path style="opacity:.008" fill="#455274" d="M574.5 440.5c-.667.667-.667.667 0 0zM894.5 443.5c1.333.667 1.333.667 0 0z"/><path style="opacity:.996" fill="#4c4a61" d="M559.5 432.5v219H-.5v-1h559c-.333-74.041 0-146.708 1-218z"/></svg>