<svg xmlns="http://www.w3.org/2000/svg" width="886" height="652" style="shape-rendering:geometricPrecision;text-rendering:geometricPrecision;image-rendering:optimizeQuality;fill-rule:evenodd;clip-rule:evenodd"><path style="opacity:.976" fill="#e6e6e6" d="M62.5-.5h129c21.01 36.673 42.01 73.34 63 110a6042.248 6042.248 0 0 1-63 110.5c-43.004.833-86.004.667-129-.5a40505.241 40505.241 0 0 0-63-108v-3a8507.92 8507.92 0 0 0 63-109z"/><path style="opacity:.975" fill="#e6e6e6" d="M693.5-.5h129a4296.831 4296.831 0 0 0 63 108v4a16496.42 16496.42 0 0 0-63 108.5c-43 .667-86 .667-129 0a7797.085 7797.085 0 0 1-53-92 165.116 165.116 0 0 1-10-18.5c20.18-36.16 41.18-72.827 63-110z"/><path style="opacity:.972" fill="#e6e6e6" d="M378.5.5c42.668-.167 85.335 0 128 .5l63 109a17474.197 17474.197 0 0 1-63 108.5 2049.012 2049.012 0 0 1-128 0 10962.4 10962.4 0 0 0-63-108.5A53530.18 53530.18 0 0 0 378.5.5z"/><path style="opacity:1" fill="#fefefe" d="M70.5 11.5c37.668-.167 75.335 0 113 .5a14478.202 14478.202 0 0 1 56 97.5 6999.078 6999.078 0 0 1-55 97 2166.4 2166.4 0 0 1-114 .5 3492.02 3492.02 0 0 1-56-97 14128.036 14128.036 0 0 1 56-98.5zM701.5 11.5c37.668-.167 75.335 0 113 .5a7112.227 7112.227 0 0 1 56 98 3492.777 3492.777 0 0 1-56 97 2166.4 2166.4 0 0 1-114-.5 6999.078 6999.078 0 0 1-55-97c18.662-32.657 37.329-65.323 56-98zM386.5 12.5c37.335-.167 74.668 0 112 .5a13786.064 13786.064 0 0 0 56 96.5 4604.581 4604.581 0 0 1-56 96.5c-37.333.667-74.667.667-112 0a4604.581 4604.581 0 0 1-56-96.5 7039.028 7039.028 0 0 0 56-97z"/><path style="opacity:1" fill="#e2e2e2" d="M91.5 76.5h99v8h-99v-8z"/><path style="opacity:1" fill="#33b7ff" d="M383.5 75.5c5.313.144 7.479 2.81 6.5 8-4.699 4.324-8.199 3.49-10.5-2.5.507-2.545 1.841-4.379 4-5.5z"/><path style="opacity:1" fill="#e2e2e2" d="M721.5 76.5h100v8h-100v-8z"/><path style="opacity:1" fill="#6ad0ff" d="M406.5 76.5h99v9h-99v-9z"/><path style="opacity:1" fill="#00afff" d="M407.5 77.5h97v7h-97v-7z"/><path style="opacity:1" fill="#e2e2e2" d="M91.5 105.5h99v8h-99v-8z"/><path style="opacity:1" fill="#32b7ff" d="M382.5 104.5c5.826-.343 8.326 2.324 7.5 8-4.602 4.361-8.102 3.528-10.5-2.5.624-2.085 1.624-3.918 3-5.5z"/><path style="opacity:1" fill="#e2e2e2" d="M722.5 105.5h98v8h-98v-8z"/><path style="opacity:1" fill="#0cb1ff" d="M504.5 105.5v8h-98v-8h98z"/><path style="opacity:1" fill="#8cdbff" d="M504.5 105.5c.977 2.787 1.31 5.787 1 9-33.171.332-66.171-.002-99-1h98v-8z"/><path style="opacity:1" fill="#27b5ff" d="M382.5 133.5c7.245.055 9.245 3.222 6 9.5-8.536.659-10.536-2.508-6-9.5z"/><path style="opacity:1" fill="#e3e3e3" d="M90.5 134.5h100v9h-100v-9z"/><path style="opacity:1" fill="#0cb1ff" d="M406.5 134.5h99v8h-99v-8z"/><path style="opacity:1" fill="#e3e3e3" d="M721.5 134.5h100v9h-100v-9z"/><path style="opacity:.982" fill="#2f2e41" d="M588.5 212.5a243.227 243.227 0 0 1-11.5-27c-1.047-2.208-2.547-3.874-4.5-5a31.941 31.941 0 0 0-3.5-6c-.959-3.921.208-7.088 3.5-9.5 6.111-2.206 10.111-6.373 12-12.5a4.933 4.933 0 0 0-1-2.5c3.551 1.131 6.885.631 10-1.5 2.253.753 4.087 2.086 5.5 4a8.43 8.43 0 0 0 .5-4c23.953 4.872 34.453 19.539 31.5 44-4.948 16.976-16.115 25.476-33.5 25.5-3.7-.843-6.7-2.676-9-5.5z"/><path style="opacity:.912" fill="#995f6a" d="M572.5 180.5c1.953 1.126 3.453 2.792 4.5 5a243.227 243.227 0 0 0 11.5 27c-.897-1.098-1.73-1.098-2.5 0-8.766-6.74-13.599-15.24-14.5-25.5.395-2.223.728-4.389 1-6.5z"/><path style="opacity:.989" fill="#3e3c55" d="M671.5 417.5a77.772 77.772 0 0 0-17-1c.172-.992-.162-1.658-1-2a1284.163 1284.163 0 0 0-2.5-77 480.804 480.804 0 0 0-5-21l-.5 5a2422.526 2422.526 0 0 1 6 80 10.677 10.677 0 0 1-5 4 43.225 43.225 0 0 0-8-3.5 704.133 704.133 0 0 0-95 1.5 2915.807 2915.807 0 0 1 16.5-88c.667-2 .667-4 0-6a64.732 64.732 0 0 0-6 14l-17 93c-1.145 1.184-2.312 1.184-3.5 0a76.391 76.391 0 0 0-17-3 947.953 947.953 0 0 1 7-57 7234.083 7234.083 0 0 0 10.5-84c.793-3.923.626-7.756-.5-11.5 3.851-9.883 10.851-17.549 21-23 12.167-7.5 25.333-12 39.5-13.5 9.57.514 18.736 2.68 27.5 6.5l36 21c7.743 11.229 11.91 23.729 12.5 37.5a2220.98 2220.98 0 0 1 5.5 68.5 1992.028 1992.028 0 0 0-2.5 53.5c-.191 2.208-.691 4.208-1.5 6zm-18-3c-1.209-4.118-1.876-8.451-2-13a2422.526 2422.526 0 0 0-6-80l.5-5a480.804 480.804 0 0 1 5 21 1284.163 1284.163 0 0 1 2.5 77z"/><path style="opacity:.986" fill="#2f2e41" d="M651.5 401.5c.124 4.549.791 8.882 2 13-.302 2.559.032 4.893 1 7-.166 5.344.001 10.677.5 16l2.5 5c3.522 47.658 7.022 95.325 10.5 143 5.038 7.799 6.371 16.133 4 25a14.506 14.506 0 0 1-4 5 72.367 72.367 0 0 0-.5 12h-3c-5-1.333-10-1.333-15 0-1.788.285-3.455-.048-5-1a105.545 105.545 0 0 0-9.5-17 98.155 98.155 0 0 1 1.5-20.5 681.82 681.82 0 0 1-3.5-17.5 4274.693 4274.693 0 0 1-4-49 3475.233 3475.233 0 0 0-34-71 7027.384 7027.384 0 0 0-24 79 572.508 572.508 0 0 0-8 73c-1.364 2.863-3.53 4.863-6.5 6a67.391 67.391 0 0 0-3 16h-3c-5.21.108-10.21.775-15 2h-3a116.302 116.302 0 0 0-6.5-18c-.793-5.777-.293-11.443 1.5-17a370.618 370.618 0 0 1-2-17.5c2.169-12.408 2.502-24.908 1-37.5 2.796-26.996 5.629-53.996 8.5-81 .822-7.512.655-14.845-.5-22a5.727 5.727 0 0 0 1-3 146.134 146.134 0 0 1 8-28 704.133 704.133 0 0 1 95-1.5 43.225 43.225 0 0 1 8 3.5 10.677 10.677 0 0 0 5-4z"/><path style="opacity:.946" fill="#9c5f69" d="M516.5 413.5a76.391 76.391 0 0 1 17 3 53.467 53.467 0 0 0-2 5.5 24.17 24.17 0 0 1 4 9.5 5.727 5.727 0 0 1-1 3c-.693 4.211-2.86 7.545-6.5 10a47.02 47.02 0 0 1-13.5-1.5l1-1a33.016 33.016 0 0 1-6-9 96.617 96.617 0 0 0 7-19.5z"/><path style="opacity:.961" fill="#9c5f69" d="M654.5 416.5a77.772 77.772 0 0 1 17 1c.214 1.644-.12 3.144-1 4.5 6.574 3.608 8.741 9.108 6.5 16.5-5.276 7.407-11.776 8.74-19.5 4l-2.5-5a128.507 128.507 0 0 1-.5-16v-5z"/><path style="opacity:.973" fill="#f0f0f0" d="M755.5 649.5h-3c-.359-1.871-1.359-3.371-3-4.5l-48-44c18.556 3.362 34.389 11.862 47.5 25.5l3 5 1-55c11.516 18.577 15.182 38.577 11 60-2.296 4.774-5.129 9.108-8.5 13z"/><path style="opacity:.942" fill="#9b5f69" d="M550.5 625.5v9h-14c.083-2.236-.25-4.57-1-7 4.79-1.225 9.79-1.892 15-2z"/><path style="opacity:.938" fill="#9b5f68" d="M664.5 627.5v7h-14a21.435 21.435 0 0 0-1-7c5-1.333 10-1.333 15 0z"/><path style="opacity:.969" fill="#302e41" d="M536.5 634.5h17v15h-40c-.023-6.125 2.644-10.625 8-13.5a45.902 45.902 0 0 1 15-1.5zM650.5 634.5h17v15h-40c.06-7.561 3.726-12.394 11-14.5a72.367 72.367 0 0 1 12-.5z"/><path style="opacity:1" fill="#cbcbcb" d="M513.5 649.5h242c17.034-.652 33.7.015 50 2h-384c30.315-1.992 60.982-2.659 92-2z"/></svg>