<svg xmlns="http://www.w3.org/2000/svg" width="643" height="528" style="shape-rendering:geometricPrecision;text-rendering:geometricPrecision;image-rendering:optimizeQuality;fill-rule:evenodd;clip-rule:evenodd"><path style="opacity:.994" fill="#2f2e41" d="M441.5-.5h29c20.661 3.419 37.494 13.419 50.5 30 9.791 14.518 12.124 30.185 7 47a949.241 949.241 0 0 1-18 37c-7.473 19.909-2.64 36.075 14.5 48.5 9.933 6.09 20.6 10.423 32 13a676.122 676.122 0 0 1 43 8c22.839 5.354 37.172 19.187 43 41.5v23c-5.818 25.432-19.985 44.099-42.5 56a109.725 109.725 0 0 1-23.5 11.5c-31.902 11.257-64.568 17.424-98 18.5a182.76 182.76 0 0 1-39-4c-36.275-9.109-61.108-31.109-74.5-66-6.065-22.733-2.398-43.733 11-63a443.915 443.915 0 0 1 14.5-20 159.165 159.165 0 0 0 13-20c1.574-.437 2.741-1.437 3.5-3 6.033-10.597 9.533-21.93 10.5-34a43.745 43.745 0 0 0-3.5-18 169.313 169.313 0 0 0-9-15c-.777-2.93-.61-5.763.5-8.5a264.128 264.128 0 0 0-19 10c-12.035 5.651-24.035 5.818-36 .5-2.877-.873-5.21-2.54-7-5-1.115-2.612-2.782-4.78-5-6.5.608-2.184-.059-4.184-2-6-.334-22.989 9.666-39.989 30-51 23.968-11.712 48.968-19.879 75-24.5z"/><path style="opacity:.99" fill="#fdb6b7" d="M403.5 160.5c-7.157-1.114-14.157-3.614-21-7.5-17.472-11.077-27.972-26.577-31.5-46.5a98.434 98.434 0 0 1-.5-14c11.965 5.318 23.965 5.151 36-.5a264.128 264.128 0 0 1 19-10c-1.11 2.737-1.277 5.57-.5 8.5a169.313 169.313 0 0 1 9 15 43.745 43.745 0 0 1 3.5 18c-.967 12.07-4.467 23.403-10.5 34-.759 1.563-1.926 2.563-3.5 3z"/><path style="opacity:1" fill="#c9c8c9" d="M124.5 151.5c-5.797 2.447-10.797 6.113-15 11A8185.012 8185.012 0 0 0 7.5 88a8497.845 8497.845 0 0 1 115 51c.64 4.268 1.307 8.435 2 12.5z"/><path style="opacity:1" fill="#58566b" d="M148.5 121.5a182.234 182.234 0 0 0-21.5 18 27.866 27.866 0 0 0-1.5 11c0 .667-.333 1-1 1a632.785 632.785 0 0 1-2-12.5 8497.845 8497.845 0 0 0-115-51 8185.012 8185.012 0 0 1 102 74.5c.073 1.527-.594 2.527-2 3-.175-2.344-1.342-4.011-3.5-5L63.5 203c-2.4.711-4.732.544-7-.5-19.03-37.394-38.03-74.728-57-112v-7c3.018-1.963 6.351-2.463 10-1.5A6122.857 6122.857 0 0 1 150 112.5c.932 3.323.432 6.323-1.5 9zm-145-33c31.933 22.575 64.266 46.075 97 70.5a549.764 549.764 0 0 0-38 41c-1.612.72-3.112.554-4.5-.5-18.194-37.053-36.36-74.053-54.5-111zm7-2c11.034 1.234 22.2 3.234 33.5 6a41051.06 41051.06 0 0 0 45.5 9.5c-1.196.654-1.196 1.154 0 1.5 2.24-1.62 4.073-1.287 5.5 1a4.932 4.932 0 0 1 2.5-1 7338.822 7338.822 0 0 1 49 10.5 4.933 4.933 0 0 1 1 2.5 134.871 134.871 0 0 1-23.5 20 16887.68 16887.68 0 0 0-113.5-50zm-7 2c-1.282-1.208-1.282-2.542 0-4 .406 1.058.406 2.39 0 4z"/><path style="opacity:.004" fill="#b2abad" d="M148.5 121.5c1.333.667 1.333.667 0 0z"/><path style="opacity:.982" fill="#feb8b8" d="M125.5 150.5c20.223-2.399 32.557 6.267 37 26a9428.762 9428.762 0 0 1 113 65c.683-.363 1.35-.696 2-1a19.51 19.51 0 0 0 3.5 7 1132.795 1132.795 0 0 1 27.5 36 104.137 104.137 0 0 0-13 11c-4.736 3.889-10.069 6.723-16 8.5-6.027 1.034-11.694.034-17-3a13397.98 13397.98 0 0 0-119-94 83.412 83.412 0 0 0-10 1.5 86.52 86.52 0 0 1-15-3.5c-6.915-5.82-11.581-12.153-14-19-.259-6.567.741-13.067 3-19.5 1.406-.473 2.073-1.473 2-3 4.203-4.887 9.203-8.553 15-11 .667 0 1-.333 1-1z"/><path style="opacity:.992" fill="#03affe" d="M390.5 180.5a443.915 443.915 0 0 0-14.5 20c-13.398 19.267-17.065 40.267-11 63 13.392 34.891 38.225 56.891 74.5 66a179.584 179.584 0 0 0-6 17c-6.689 13.39-12.023 27.39-16 42a130.354 130.354 0 0 0-24-18.5c-23.858-11.275-48.858-14.608-75-10-8.84 1.122-17.173 3.622-25 7.5a352.123 352.123 0 0 0-2-26.5c1.941-6.611 2.274-13.278 1-20a107.125 107.125 0 0 0 2-9.5c-.258-2.13-.591-4.296-1-6.5 1.763-3.243 2.429-6.743 2-10.5a104.137 104.137 0 0 1 13-11 1132.795 1132.795 0 0 0-27.5-36 19.51 19.51 0 0 1-3.5-7c-.497-2.097-.83-3.93-1-5.5 1.26-2.317 3.26-4.651 6-7a582.408 582.408 0 0 0 68-41c12.863-5.475 26.197-7.642 40-6.5z"/><path style="opacity:.995" fill="#e5e5e5" d="M263.5 391.5c-6.329-28.66-21.995-50.66-47-66-1.783.848-2.283 2.181-1.5 4 22.222 14.722 36.389 35.055 42.5 61-15.501 3.349-30.501 1.183-45-6.5-13.148-7.978-22.481-19.311-28-34a109.553 109.553 0 0 0-6-11c.63-2.816-.036-5.482-2-8 1.134-1.016.801-1.683-1-2 .714-1.343.38-2.676-1-4a3.943 3.943 0 0 0 1-2c-2.021-6.449-3.354-12.782-4-19l-2-1c.165-1.117.498-2.284 1-3.5-.344-2.536-1.344-4.703-3-6.5.901-4.176.234-8.176-2-12 1.227-1.587.894-2.921-1-4a3.943 3.943 0 0 0 1-2c-.383-2.964-1.383-5.63-3-8a3.943 3.943 0 0 0 1-2 209.676 209.676 0 0 1-5-20l1-1a17.958 17.958 0 0 0-3-7c-1.132-4.1-1.132-8.266 0-12.5a1026.422 1026.422 0 0 1 70 49.5c16.557 13.618 29.39 30.118 38.5 49.5 9.053 23.367 8.553 46.034-1.5 68z"/><path style="opacity:.995" fill="#f0f0f0" d="M263.5 391.5a166.947 166.947 0 0 1 4 28c-1.398 6.943-3.398 13.609-6 20 .83-16.805-.503-33.139-4-49-6.111-25.945-20.278-46.278-42.5-61-.783-1.819-.283-3.152 1.5-4 25.005 15.34 40.671 37.34 47 66z"/><path style="opacity:.986" fill="#feb7b7" d="M439.5 329.5a182.76 182.76 0 0 0 39 4 698.688 698.688 0 0 1 4 48 630.506 630.506 0 0 0 5 54c.235 6.854.902 13.521 2 20-1.333 3-1.333 6 0 9a227.717 227.717 0 0 1 1.5 15 79.052 79.052 0 0 0 8 13c3.151 5.676 1.651 9.176-4.5 10.5.84 1.666.34 1.833-1.5.5a6.547 6.547 0 0 0-3 3l-1-1a172.553 172.553 0 0 0-19.5 9 99.218 99.218 0 0 1-5 0 627.5 627.5 0 0 0-19-55 213.816 213.816 0 0 1-1.5-13l-1.5-1.5c.616-1.4.949-2.9 1-4.5-2.901-27.347-5.735-54.68-8.5-82l-1.5-1.5c1.217-3.466 1.217-6.966 0-10.5a179.584 179.584 0 0 1 6-17z"/><path style="opacity:.989" fill="#e6e5e5" d="M503.5 427.5c-4.831 4.417-10.165 7.084-16 8a630.506 630.506 0 0 1-5-54 603.324 603.324 0 0 1 42.5-31 440.287 440.287 0 0 1-13 63c-2.091 5.194-4.924 9.861-8.5 14z"/><path style="opacity:.993" fill="#2f2e41" d="M417.5 388.5a54.382 54.382 0 0 1 2 8c-1.591 4.584-2.425 9.251-2.5 14a449.189 449.189 0 0 1 28.5 49 627.5 627.5 0 0 1 19 55c-4.395 1.935-9.062 3.269-14 4-1.291-.237-2.291.096-3 1-.722.418-1.222 1.084-1.5 2a3.943 3.943 0 0 0-2-1 378.206 378.206 0 0 1-39.5 7h-45c-38.798-4.055-74.965-15.388-108.5-34a78.012 78.012 0 0 1 1.5-16c1.618-2.671 2.285-5.671 2-9a961.324 961.324 0 0 1 7-29c2.602-6.391 4.602-13.057 6-20 6.205-18.648 14.872-35.982 26-52 7.827-3.878 16.16-6.378 25-7.5 26.142-4.608 51.142-1.275 75 10a130.354 130.354 0 0 1 24 18.5z"/><path style="opacity:.993" fill="#e5e5e5" d="M229.5 442.5c-16.591-13.529-35.591-19.195-57-17v4c20.434-1.52 38.434 4.147 54 17-9.297 8.973-19.963 14.64-32 17-10.384-.398-20.217-3.398-29.5-9-1.84 1.333-2.34 1.166-1.5-.5a279.736 279.736 0 0 1-32-24 1342.237 1342.237 0 0 0-39-36 546.847 546.847 0 0 1 71-2c26.567 1.689 47.067 13.522 61.5 35.5a55.584 55.584 0 0 1 4.5 15z"/><path style="opacity:.991" fill="#f0efef" d="M229.5 442.5c5.24 3.733 10.074 8.066 14.5 13a73.9 73.9 0 0 0 10.5 13c.285 3.329-.382 6.329-2 9-7.251-11.579-15.918-21.912-26-31-15.566-12.853-33.566-18.52-54-17v-4c21.409-2.195 40.409 3.471 57 17z"/><path style="opacity:.004" fill="#b2abad" d="M503.5 427.5c1.333.667 1.333.667 0 0z"/><path style="opacity:.987" fill="#e6e6e6" d="M489.5 464.5c-1.333-3-1.333-6 0-9 4.906-10.061 12.906-16.227 24-18.5a146.877 146.877 0 0 1 44 .5 848.788 848.788 0 0 0-26 23.5 97.042 97.042 0 0 1-14 9c-10.425 4.145-19.758 2.312-28-5.5z"/><path style="opacity:.004" fill="#9d9299" d="M447.5 519.5c.709-.904 1.709-1.237 3-1 .963.863.963 1.53 0 2a5.576 5.576 0 0 0-3-1z"/></svg>